<mxfile host="Electron" agent="Mozilla/5.0 (Windows NT 10.0; Win64; x64) AppleWebKit/537.36 (KHTML, like Gecko) draw.io/26.0.9 Chrome/128.0.6613.186 Electron/32.2.5 Safari/537.36" version="26.0.9">
  <diagram name="Page-1" id="b0-oetSpgah8wE7GS4-k">
    <mxGraphModel dx="840" dy="1516" grid="1" gridSize="10" guides="1" tooltips="1" connect="1" arrows="1" fold="1" page="1" pageScale="1" pageWidth="850" pageHeight="1100" math="0" shadow="0">
      <root>
        <mxCell id="0" />
        <mxCell id="1" parent="0" />
        <mxCell id="G98kA5IshkSnOS4cs9w8-90" value="" style="group" vertex="1" connectable="0" parent="1">
          <mxGeometry x="90" y="-410" width="480" height="370" as="geometry" />
        </mxCell>
        <mxCell id="G98kA5IshkSnOS4cs9w8-65" value="" style="group" vertex="1" connectable="0" parent="G98kA5IshkSnOS4cs9w8-90">
          <mxGeometry width="480" height="370" as="geometry" />
        </mxCell>
        <mxCell id="G98kA5IshkSnOS4cs9w8-66" value="Q0" style="rounded=0;whiteSpace=wrap;html=1;container=0;" vertex="1" parent="G98kA5IshkSnOS4cs9w8-65">
          <mxGeometry y="60" width="120" height="60" as="geometry" />
        </mxCell>
        <mxCell id="G98kA5IshkSnOS4cs9w8-67" value="Q1" style="rounded=0;whiteSpace=wrap;html=1;container=0;" vertex="1" parent="G98kA5IshkSnOS4cs9w8-65">
          <mxGeometry x="120" y="60" width="120" height="60" as="geometry" />
        </mxCell>
        <mxCell id="G98kA5IshkSnOS4cs9w8-68" value="-" style="rounded=0;whiteSpace=wrap;html=1;container=0;" vertex="1" parent="G98kA5IshkSnOS4cs9w8-65">
          <mxGeometry x="240" y="60" width="120" height="60" as="geometry" />
        </mxCell>
        <mxCell id="G98kA5IshkSnOS4cs9w8-69" value="-" style="rounded=0;whiteSpace=wrap;html=1;container=0;" vertex="1" parent="G98kA5IshkSnOS4cs9w8-65">
          <mxGeometry x="360" y="60" width="120" height="60" as="geometry" />
        </mxCell>
        <mxCell id="G98kA5IshkSnOS4cs9w8-70" value="STARE" style="rounded=0;whiteSpace=wrap;html=1;container=0;" vertex="1" parent="G98kA5IshkSnOS4cs9w8-65">
          <mxGeometry width="120" height="60" as="geometry" />
        </mxCell>
        <mxCell id="G98kA5IshkSnOS4cs9w8-71" value="INPUT A" style="rounded=0;whiteSpace=wrap;html=1;container=0;" vertex="1" parent="G98kA5IshkSnOS4cs9w8-65">
          <mxGeometry x="120" width="120" height="60" as="geometry" />
        </mxCell>
        <mxCell id="G98kA5IshkSnOS4cs9w8-72" value="INPUT B" style="rounded=0;whiteSpace=wrap;html=1;container=0;" vertex="1" parent="G98kA5IshkSnOS4cs9w8-65">
          <mxGeometry x="240" width="120" height="60" as="geometry" />
        </mxCell>
        <mxCell id="G98kA5IshkSnOS4cs9w8-73" value="INPUT EPSILON" style="rounded=0;whiteSpace=wrap;html=1;container=0;" vertex="1" parent="G98kA5IshkSnOS4cs9w8-65">
          <mxGeometry x="360" width="120" height="60" as="geometry" />
        </mxCell>
        <mxCell id="G98kA5IshkSnOS4cs9w8-74" value="Q2" style="rounded=0;whiteSpace=wrap;html=1;container=0;" vertex="1" parent="G98kA5IshkSnOS4cs9w8-65">
          <mxGeometry y="180" width="120" height="60" as="geometry" />
        </mxCell>
        <mxCell id="G98kA5IshkSnOS4cs9w8-75" value="Q3" style="rounded=0;whiteSpace=wrap;html=1;container=0;" vertex="1" parent="G98kA5IshkSnOS4cs9w8-65">
          <mxGeometry x="120" y="180" width="120" height="60" as="geometry" />
        </mxCell>
        <mxCell id="G98kA5IshkSnOS4cs9w8-76" value="Q2,Q3" style="rounded=0;whiteSpace=wrap;html=1;container=0;" vertex="1" parent="G98kA5IshkSnOS4cs9w8-65">
          <mxGeometry x="240" y="180" width="120" height="60" as="geometry" />
        </mxCell>
        <mxCell id="G98kA5IshkSnOS4cs9w8-77" value="-" style="rounded=0;whiteSpace=wrap;html=1;container=0;" vertex="1" parent="G98kA5IshkSnOS4cs9w8-65">
          <mxGeometry x="360" y="180" width="120" height="60" as="geometry" />
        </mxCell>
        <mxCell id="G98kA5IshkSnOS4cs9w8-78" value="Q1" style="rounded=0;whiteSpace=wrap;html=1;container=0;" vertex="1" parent="G98kA5IshkSnOS4cs9w8-65">
          <mxGeometry y="120" width="120" height="60" as="geometry" />
        </mxCell>
        <mxCell id="G98kA5IshkSnOS4cs9w8-79" value="Q1" style="rounded=0;whiteSpace=wrap;html=1;container=0;" vertex="1" parent="G98kA5IshkSnOS4cs9w8-65">
          <mxGeometry x="120" y="120" width="120" height="60" as="geometry" />
        </mxCell>
        <mxCell id="G98kA5IshkSnOS4cs9w8-80" value="-" style="rounded=0;whiteSpace=wrap;html=1;container=0;" vertex="1" parent="G98kA5IshkSnOS4cs9w8-65">
          <mxGeometry x="240" y="120" width="120" height="60" as="geometry" />
        </mxCell>
        <mxCell id="G98kA5IshkSnOS4cs9w8-81" value="Q2" style="rounded=0;whiteSpace=wrap;html=1;container=0;" vertex="1" parent="G98kA5IshkSnOS4cs9w8-65">
          <mxGeometry x="360" y="120" width="120" height="60" as="geometry" />
        </mxCell>
        <mxCell id="G98kA5IshkSnOS4cs9w8-82" value="Q3" style="rounded=0;whiteSpace=wrap;html=1;container=0;" vertex="1" parent="G98kA5IshkSnOS4cs9w8-65">
          <mxGeometry y="240" width="120" height="60" as="geometry" />
        </mxCell>
        <mxCell id="G98kA5IshkSnOS4cs9w8-83" value="Q3" style="rounded=0;whiteSpace=wrap;html=1;container=0;" vertex="1" parent="G98kA5IshkSnOS4cs9w8-65">
          <mxGeometry x="120" y="240" width="120" height="60" as="geometry" />
        </mxCell>
        <mxCell id="G98kA5IshkSnOS4cs9w8-84" value="Q1" style="rounded=0;whiteSpace=wrap;html=1;container=0;" vertex="1" parent="G98kA5IshkSnOS4cs9w8-65">
          <mxGeometry x="240" y="240" width="120" height="60" as="geometry" />
        </mxCell>
        <mxCell id="G98kA5IshkSnOS4cs9w8-85" value="Q4" style="rounded=0;whiteSpace=wrap;html=1;container=0;" vertex="1" parent="G98kA5IshkSnOS4cs9w8-65">
          <mxGeometry x="360" y="240" width="120" height="60" as="geometry" />
        </mxCell>
        <mxCell id="G98kA5IshkSnOS4cs9w8-91" value="START:" style="text;html=1;align=center;verticalAlign=middle;resizable=0;points=[];autosize=1;strokeColor=none;fillColor=none;" vertex="1" parent="G98kA5IshkSnOS4cs9w8-65">
          <mxGeometry y="75" width="60" height="30" as="geometry" />
        </mxCell>
        <mxCell id="G98kA5IshkSnOS4cs9w8-92" value="" style="ellipse;shape=doubleEllipse;whiteSpace=wrap;html=1;aspect=fixed;" vertex="1" parent="G98kA5IshkSnOS4cs9w8-65">
          <mxGeometry x="40" y="310" width="40" height="40" as="geometry" />
        </mxCell>
        <mxCell id="G98kA5IshkSnOS4cs9w8-93" value="" style="ellipse;shape=doubleEllipse;whiteSpace=wrap;html=1;aspect=fixed;" vertex="1" parent="G98kA5IshkSnOS4cs9w8-65">
          <mxGeometry x="20" y="290" width="80" height="80" as="geometry" />
        </mxCell>
        <mxCell id="G98kA5IshkSnOS4cs9w8-87" value="-" style="rounded=0;whiteSpace=wrap;html=1;" vertex="1" parent="G98kA5IshkSnOS4cs9w8-90">
          <mxGeometry x="120" y="300" width="120" height="60" as="geometry" />
        </mxCell>
        <mxCell id="G98kA5IshkSnOS4cs9w8-88" value="-" style="rounded=0;whiteSpace=wrap;html=1;" vertex="1" parent="G98kA5IshkSnOS4cs9w8-90">
          <mxGeometry x="240" y="300" width="120" height="60" as="geometry" />
        </mxCell>
        <mxCell id="G98kA5IshkSnOS4cs9w8-89" value="-" style="rounded=0;whiteSpace=wrap;html=1;" vertex="1" parent="G98kA5IshkSnOS4cs9w8-90">
          <mxGeometry x="360" y="300" width="120" height="60" as="geometry" />
        </mxCell>
        <mxCell id="G98kA5IshkSnOS4cs9w8-86" value="Q4" style="rounded=0;whiteSpace=wrap;html=1;" vertex="1" parent="G98kA5IshkSnOS4cs9w8-90">
          <mxGeometry y="300" width="120" height="60" as="geometry" />
        </mxCell>
        <mxCell id="G98kA5IshkSnOS4cs9w8-41" value="Lab4 ex3" style="text;html=1;align=center;verticalAlign=middle;resizable=0;points=[];autosize=1;strokeColor=none;fillColor=none;" vertex="1" parent="1">
          <mxGeometry x="55" y="578" width="70" height="30" as="geometry" />
        </mxCell>
        <mxCell id="G98kA5IshkSnOS4cs9w8-42" value="" style="group" vertex="1" connectable="0" parent="1">
          <mxGeometry x="160" y="640" width="480" height="300" as="geometry" />
        </mxCell>
        <mxCell id="G98kA5IshkSnOS4cs9w8-43" value="Q1" style="rounded=0;whiteSpace=wrap;html=1;container=0;" vertex="1" parent="G98kA5IshkSnOS4cs9w8-42">
          <mxGeometry y="60" width="120" height="60" as="geometry" />
        </mxCell>
        <mxCell id="G98kA5IshkSnOS4cs9w8-44" value="X" style="rounded=0;whiteSpace=wrap;html=1;container=0;" vertex="1" parent="G98kA5IshkSnOS4cs9w8-42">
          <mxGeometry x="120" y="60" width="120" height="60" as="geometry" />
        </mxCell>
        <mxCell id="G98kA5IshkSnOS4cs9w8-45" value="Q2" style="rounded=0;whiteSpace=wrap;html=1;container=0;" vertex="1" parent="G98kA5IshkSnOS4cs9w8-42">
          <mxGeometry x="240" y="60" width="120" height="60" as="geometry" />
        </mxCell>
        <mxCell id="G98kA5IshkSnOS4cs9w8-46" value="O1" style="rounded=0;whiteSpace=wrap;html=1;container=0;" vertex="1" parent="G98kA5IshkSnOS4cs9w8-42">
          <mxGeometry x="360" y="60" width="120" height="60" as="geometry" />
        </mxCell>
        <mxCell id="G98kA5IshkSnOS4cs9w8-47" value="STARE CURENTA" style="rounded=0;whiteSpace=wrap;html=1;container=0;" vertex="1" parent="G98kA5IshkSnOS4cs9w8-42">
          <mxGeometry width="120" height="60" as="geometry" />
        </mxCell>
        <mxCell id="G98kA5IshkSnOS4cs9w8-48" value="INTRARE" style="rounded=0;whiteSpace=wrap;html=1;container=0;" vertex="1" parent="G98kA5IshkSnOS4cs9w8-42">
          <mxGeometry x="120" width="120" height="60" as="geometry" />
        </mxCell>
        <mxCell id="G98kA5IshkSnOS4cs9w8-49" value="STARE URMATOARE" style="rounded=0;whiteSpace=wrap;html=1;container=0;" vertex="1" parent="G98kA5IshkSnOS4cs9w8-42">
          <mxGeometry x="240" width="120" height="60" as="geometry" />
        </mxCell>
        <mxCell id="G98kA5IshkSnOS4cs9w8-50" value="OUTPUT" style="rounded=0;whiteSpace=wrap;html=1;container=0;" vertex="1" parent="G98kA5IshkSnOS4cs9w8-42">
          <mxGeometry x="360" width="120" height="60" as="geometry" />
        </mxCell>
        <mxCell id="G98kA5IshkSnOS4cs9w8-51" value="Q2" style="rounded=0;whiteSpace=wrap;html=1;container=0;" vertex="1" parent="G98kA5IshkSnOS4cs9w8-42">
          <mxGeometry y="180" width="120" height="60" as="geometry" />
        </mxCell>
        <mxCell id="G98kA5IshkSnOS4cs9w8-52" value="X" style="rounded=0;whiteSpace=wrap;html=1;container=0;" vertex="1" parent="G98kA5IshkSnOS4cs9w8-42">
          <mxGeometry x="120" y="180" width="120" height="60" as="geometry" />
        </mxCell>
        <mxCell id="G98kA5IshkSnOS4cs9w8-53" value="Q1" style="rounded=0;whiteSpace=wrap;html=1;container=0;" vertex="1" parent="G98kA5IshkSnOS4cs9w8-42">
          <mxGeometry x="240" y="180" width="120" height="60" as="geometry" />
        </mxCell>
        <mxCell id="G98kA5IshkSnOS4cs9w8-54" value="O2" style="rounded=0;whiteSpace=wrap;html=1;container=0;" vertex="1" parent="G98kA5IshkSnOS4cs9w8-42">
          <mxGeometry x="360" y="180" width="120" height="60" as="geometry" />
        </mxCell>
        <mxCell id="G98kA5IshkSnOS4cs9w8-55" value="Q1" style="rounded=0;whiteSpace=wrap;html=1;container=0;" vertex="1" parent="G98kA5IshkSnOS4cs9w8-42">
          <mxGeometry y="120" width="120" height="60" as="geometry" />
        </mxCell>
        <mxCell id="G98kA5IshkSnOS4cs9w8-56" value="Y" style="rounded=0;whiteSpace=wrap;html=1;container=0;" vertex="1" parent="G98kA5IshkSnOS4cs9w8-42">
          <mxGeometry x="120" y="120" width="120" height="60" as="geometry" />
        </mxCell>
        <mxCell id="G98kA5IshkSnOS4cs9w8-57" value="Q1" style="rounded=0;whiteSpace=wrap;html=1;container=0;" vertex="1" parent="G98kA5IshkSnOS4cs9w8-42">
          <mxGeometry x="240" y="120" width="120" height="60" as="geometry" />
        </mxCell>
        <mxCell id="G98kA5IshkSnOS4cs9w8-58" value="O1" style="rounded=0;whiteSpace=wrap;html=1;container=0;" vertex="1" parent="G98kA5IshkSnOS4cs9w8-42">
          <mxGeometry x="360" y="120" width="120" height="60" as="geometry" />
        </mxCell>
        <mxCell id="G98kA5IshkSnOS4cs9w8-59" value="Q2" style="rounded=0;whiteSpace=wrap;html=1;container=0;" vertex="1" parent="G98kA5IshkSnOS4cs9w8-42">
          <mxGeometry y="240" width="120" height="60" as="geometry" />
        </mxCell>
        <mxCell id="G98kA5IshkSnOS4cs9w8-60" value="Y" style="rounded=0;whiteSpace=wrap;html=1;container=0;" vertex="1" parent="G98kA5IshkSnOS4cs9w8-42">
          <mxGeometry x="120" y="240" width="120" height="60" as="geometry" />
        </mxCell>
        <mxCell id="G98kA5IshkSnOS4cs9w8-61" value="Q2" style="rounded=0;whiteSpace=wrap;html=1;container=0;" vertex="1" parent="G98kA5IshkSnOS4cs9w8-42">
          <mxGeometry x="240" y="240" width="120" height="60" as="geometry" />
        </mxCell>
        <mxCell id="G98kA5IshkSnOS4cs9w8-62" value="O2" style="rounded=0;whiteSpace=wrap;html=1;container=0;" vertex="1" parent="G98kA5IshkSnOS4cs9w8-42">
          <mxGeometry x="360" y="240" width="120" height="60" as="geometry" />
        </mxCell>
        <mxCell id="G98kA5IshkSnOS4cs9w8-63" value="" style="group" vertex="1" connectable="0" parent="1">
          <mxGeometry x="100" y="38" width="540" height="482" as="geometry" />
        </mxCell>
        <mxCell id="G98kA5IshkSnOS4cs9w8-3" style="edgeStyle=orthogonalEdgeStyle;rounded=0;orthogonalLoop=1;jettySize=auto;html=1;exitX=1;exitY=0;exitDx=0;exitDy=0;entryX=0;entryY=0;entryDx=0;entryDy=0;" edge="1" parent="G98kA5IshkSnOS4cs9w8-63" source="G98kA5IshkSnOS4cs9w8-1" target="G98kA5IshkSnOS4cs9w8-2">
          <mxGeometry relative="1" as="geometry" />
        </mxCell>
        <mxCell id="G98kA5IshkSnOS4cs9w8-1" value="S1&lt;div&gt;output:O1&lt;/div&gt;" style="ellipse;whiteSpace=wrap;html=1;aspect=fixed;" vertex="1" parent="G98kA5IshkSnOS4cs9w8-63">
          <mxGeometry x="90" y="62" width="80" height="80" as="geometry" />
        </mxCell>
        <mxCell id="G98kA5IshkSnOS4cs9w8-4" style="edgeStyle=orthogonalEdgeStyle;rounded=0;orthogonalLoop=1;jettySize=auto;html=1;exitX=0;exitY=1;exitDx=0;exitDy=0;entryX=1;entryY=1;entryDx=0;entryDy=0;" edge="1" parent="G98kA5IshkSnOS4cs9w8-63">
          <mxGeometry relative="1" as="geometry">
            <mxPoint x="379.21572875253787" y="122.28427124746213" as="sourcePoint" />
            <mxPoint x="160.78427124746213" y="122.28427124746213" as="targetPoint" />
          </mxGeometry>
        </mxCell>
        <mxCell id="G98kA5IshkSnOS4cs9w8-2" value="S2&lt;div&gt;output:O2&lt;/div&gt;" style="ellipse;whiteSpace=wrap;html=1;aspect=fixed;" vertex="1" parent="G98kA5IshkSnOS4cs9w8-63">
          <mxGeometry x="365" y="62" width="80" height="80" as="geometry" />
        </mxCell>
        <mxCell id="G98kA5IshkSnOS4cs9w8-5" value="A" style="text;html=1;align=center;verticalAlign=middle;resizable=0;points=[];autosize=1;strokeColor=none;fillColor=none;" vertex="1" parent="G98kA5IshkSnOS4cs9w8-63">
          <mxGeometry x="30" y="87" width="30" height="30" as="geometry" />
        </mxCell>
        <mxCell id="G98kA5IshkSnOS4cs9w8-6" value="B" style="text;html=1;align=center;verticalAlign=middle;resizable=0;points=[];autosize=1;strokeColor=none;fillColor=none;" vertex="1" parent="G98kA5IshkSnOS4cs9w8-63">
          <mxGeometry x="255" y="50" width="30" height="30" as="geometry" />
        </mxCell>
        <mxCell id="G98kA5IshkSnOS4cs9w8-7" value="A" style="text;html=1;align=center;verticalAlign=middle;resizable=0;points=[];autosize=1;strokeColor=none;fillColor=none;" vertex="1" parent="G98kA5IshkSnOS4cs9w8-63">
          <mxGeometry x="257.5" y="122" width="30" height="30" as="geometry" />
        </mxCell>
        <mxCell id="G98kA5IshkSnOS4cs9w8-9" value="" style="curved=1;endArrow=classic;html=1;rounded=0;exitX=0;exitY=0;exitDx=0;exitDy=0;entryX=0;entryY=1;entryDx=0;entryDy=0;" edge="1" parent="G98kA5IshkSnOS4cs9w8-63" source="G98kA5IshkSnOS4cs9w8-1" target="G98kA5IshkSnOS4cs9w8-1">
          <mxGeometry width="50" height="50" relative="1" as="geometry">
            <mxPoint x="40" y="72" as="sourcePoint" />
            <mxPoint x="90" y="22" as="targetPoint" />
            <Array as="points">
              <mxPoint x="90" y="72" />
              <mxPoint x="60" y="82" />
              <mxPoint x="60" y="130" />
            </Array>
          </mxGeometry>
        </mxCell>
        <mxCell id="G98kA5IshkSnOS4cs9w8-10" value="" style="curved=1;endArrow=classic;html=1;rounded=0;exitX=1;exitY=1;exitDx=0;exitDy=0;entryX=1;entryY=0;entryDx=0;entryDy=0;" edge="1" parent="G98kA5IshkSnOS4cs9w8-63" source="G98kA5IshkSnOS4cs9w8-2" target="G98kA5IshkSnOS4cs9w8-2">
          <mxGeometry width="50" height="50" relative="1" as="geometry">
            <mxPoint x="460" y="202" as="sourcePoint" />
            <mxPoint x="510" y="152" as="targetPoint" />
            <Array as="points">
              <mxPoint x="470" y="132" />
              <mxPoint x="470" y="74" />
            </Array>
          </mxGeometry>
        </mxCell>
        <mxCell id="G98kA5IshkSnOS4cs9w8-11" value="B" style="text;html=1;align=center;verticalAlign=middle;resizable=0;points=[];autosize=1;strokeColor=none;fillColor=none;" vertex="1" parent="G98kA5IshkSnOS4cs9w8-63">
          <mxGeometry x="475" y="90" width="30" height="30" as="geometry" />
        </mxCell>
        <mxCell id="G98kA5IshkSnOS4cs9w8-34" value="Lab4 EX2" style="text;html=1;align=center;verticalAlign=middle;resizable=0;points=[];autosize=1;strokeColor=none;fillColor=none;" vertex="1" parent="G98kA5IshkSnOS4cs9w8-63">
          <mxGeometry width="80" height="30" as="geometry" />
        </mxCell>
        <mxCell id="G98kA5IshkSnOS4cs9w8-39" value="" style="group" vertex="1" connectable="0" parent="G98kA5IshkSnOS4cs9w8-63">
          <mxGeometry x="60" y="182" width="480" height="300" as="geometry" />
        </mxCell>
        <mxCell id="G98kA5IshkSnOS4cs9w8-13" value="S1" style="rounded=0;whiteSpace=wrap;html=1;container=0;" vertex="1" parent="G98kA5IshkSnOS4cs9w8-39">
          <mxGeometry y="60" width="120" height="60" as="geometry" />
        </mxCell>
        <mxCell id="G98kA5IshkSnOS4cs9w8-14" value="A" style="rounded=0;whiteSpace=wrap;html=1;container=0;" vertex="1" parent="G98kA5IshkSnOS4cs9w8-39">
          <mxGeometry x="120" y="60" width="120" height="60" as="geometry" />
        </mxCell>
        <mxCell id="G98kA5IshkSnOS4cs9w8-15" value="S1" style="rounded=0;whiteSpace=wrap;html=1;container=0;" vertex="1" parent="G98kA5IshkSnOS4cs9w8-39">
          <mxGeometry x="240" y="60" width="120" height="60" as="geometry" />
        </mxCell>
        <mxCell id="G98kA5IshkSnOS4cs9w8-16" value="O1" style="rounded=0;whiteSpace=wrap;html=1;container=0;" vertex="1" parent="G98kA5IshkSnOS4cs9w8-39">
          <mxGeometry x="360" y="60" width="120" height="60" as="geometry" />
        </mxCell>
        <mxCell id="G98kA5IshkSnOS4cs9w8-19" value="STARE CURENTA" style="rounded=0;whiteSpace=wrap;html=1;container=0;" vertex="1" parent="G98kA5IshkSnOS4cs9w8-39">
          <mxGeometry width="120" height="60" as="geometry" />
        </mxCell>
        <mxCell id="G98kA5IshkSnOS4cs9w8-20" value="INTRARE" style="rounded=0;whiteSpace=wrap;html=1;container=0;" vertex="1" parent="G98kA5IshkSnOS4cs9w8-39">
          <mxGeometry x="120" width="120" height="60" as="geometry" />
        </mxCell>
        <mxCell id="G98kA5IshkSnOS4cs9w8-21" value="STARE URMATOARE" style="rounded=0;whiteSpace=wrap;html=1;container=0;" vertex="1" parent="G98kA5IshkSnOS4cs9w8-39">
          <mxGeometry x="240" width="120" height="60" as="geometry" />
        </mxCell>
        <mxCell id="G98kA5IshkSnOS4cs9w8-22" value="OUTPUT" style="rounded=0;whiteSpace=wrap;html=1;container=0;" vertex="1" parent="G98kA5IshkSnOS4cs9w8-39">
          <mxGeometry x="360" width="120" height="60" as="geometry" />
        </mxCell>
        <mxCell id="G98kA5IshkSnOS4cs9w8-24" value="S2" style="rounded=0;whiteSpace=wrap;html=1;container=0;" vertex="1" parent="G98kA5IshkSnOS4cs9w8-39">
          <mxGeometry y="180" width="120" height="60" as="geometry" />
        </mxCell>
        <mxCell id="G98kA5IshkSnOS4cs9w8-25" value="A" style="rounded=0;whiteSpace=wrap;html=1;container=0;" vertex="1" parent="G98kA5IshkSnOS4cs9w8-39">
          <mxGeometry x="120" y="180" width="120" height="60" as="geometry" />
        </mxCell>
        <mxCell id="G98kA5IshkSnOS4cs9w8-26" value="S1" style="rounded=0;whiteSpace=wrap;html=1;container=0;" vertex="1" parent="G98kA5IshkSnOS4cs9w8-39">
          <mxGeometry x="240" y="180" width="120" height="60" as="geometry" />
        </mxCell>
        <mxCell id="G98kA5IshkSnOS4cs9w8-27" value="02" style="rounded=0;whiteSpace=wrap;html=1;container=0;" vertex="1" parent="G98kA5IshkSnOS4cs9w8-39">
          <mxGeometry x="360" y="180" width="120" height="60" as="geometry" />
        </mxCell>
        <mxCell id="G98kA5IshkSnOS4cs9w8-29" value="S1" style="rounded=0;whiteSpace=wrap;html=1;container=0;" vertex="1" parent="G98kA5IshkSnOS4cs9w8-39">
          <mxGeometry y="120" width="120" height="60" as="geometry" />
        </mxCell>
        <mxCell id="G98kA5IshkSnOS4cs9w8-30" value="B" style="rounded=0;whiteSpace=wrap;html=1;container=0;" vertex="1" parent="G98kA5IshkSnOS4cs9w8-39">
          <mxGeometry x="120" y="120" width="120" height="60" as="geometry" />
        </mxCell>
        <mxCell id="G98kA5IshkSnOS4cs9w8-31" value="S2" style="rounded=0;whiteSpace=wrap;html=1;container=0;" vertex="1" parent="G98kA5IshkSnOS4cs9w8-39">
          <mxGeometry x="240" y="120" width="120" height="60" as="geometry" />
        </mxCell>
        <mxCell id="G98kA5IshkSnOS4cs9w8-32" value="O1" style="rounded=0;whiteSpace=wrap;html=1;container=0;" vertex="1" parent="G98kA5IshkSnOS4cs9w8-39">
          <mxGeometry x="360" y="120" width="120" height="60" as="geometry" />
        </mxCell>
        <mxCell id="G98kA5IshkSnOS4cs9w8-35" value="S2" style="rounded=0;whiteSpace=wrap;html=1;container=0;" vertex="1" parent="G98kA5IshkSnOS4cs9w8-39">
          <mxGeometry y="240" width="120" height="60" as="geometry" />
        </mxCell>
        <mxCell id="G98kA5IshkSnOS4cs9w8-36" value="B" style="rounded=0;whiteSpace=wrap;html=1;container=0;" vertex="1" parent="G98kA5IshkSnOS4cs9w8-39">
          <mxGeometry x="120" y="240" width="120" height="60" as="geometry" />
        </mxCell>
        <mxCell id="G98kA5IshkSnOS4cs9w8-37" value="S2" style="rounded=0;whiteSpace=wrap;html=1;container=0;" vertex="1" parent="G98kA5IshkSnOS4cs9w8-39">
          <mxGeometry x="240" y="240" width="120" height="60" as="geometry" />
        </mxCell>
        <mxCell id="G98kA5IshkSnOS4cs9w8-38" value="02" style="rounded=0;whiteSpace=wrap;html=1;container=0;" vertex="1" parent="G98kA5IshkSnOS4cs9w8-39">
          <mxGeometry x="360" y="240" width="120" height="60" as="geometry" />
        </mxCell>
        <mxCell id="G98kA5IshkSnOS4cs9w8-64" value="Lab4 EX 1" style="text;html=1;align=center;verticalAlign=middle;whiteSpace=wrap;rounded=0;" vertex="1" parent="1">
          <mxGeometry x="100" y="-440" width="60" height="30" as="geometry" />
        </mxCell>
      </root>
    </mxGraphModel>
  </diagram>
</mxfile>
